<svg xmlns="http://www.w3.org/2000/svg" width="384" height="96" viewBox="0 0 384 96">
  <rect width="384" height="96" fill="none"/>
  <g transform="translate(0 0)">
    <rect x="14" y="20" width="68" height="52" rx="10" fill="#fff4db" stroke="#bb6c28" stroke-width="3"/>
    <circle cx="28" cy="35" r="4" fill="#f48d34"/>
    <path d="M28 43 A10 10 0 0 1 38 53" stroke="#f48d34" stroke-width="3" fill="none"/>
    <path d="M28 48 A17 17 0 0 1 45 65" stroke="#f48d34" stroke-width="3" fill="none"/>
    <rect x="44" y="30" width="24" height="4" rx="2" fill="#c79462"/>
    <rect x="44" y="40" width="20" height="4" rx="2" fill="#d2a776"/>
    <rect x="44" y="50" width="18" height="4" rx="2" fill="#d2a776"/>
  </g>
  <g transform="translate(96 0)">
    <rect x="14" y="20" width="68" height="52" rx="10" fill="#fff4db" stroke="#bb6c28" stroke-width="3"/>
    <circle cx="28" cy="35" r="4" fill="#f48d34"/>
    <path d="M28 43 A11 11 0 0 1 39 54" stroke="#f48d34" stroke-width="3" fill="none"/>
    <path d="M28 48 A18 18 0 0 1 46 66" stroke="#f48d34" stroke-width="3" fill="none"/>
    <rect x="42" y="29" width="26" height="4" rx="2" fill="#c79462"/>
    <rect x="42" y="40" width="23" height="4" rx="2" fill="#d2a776"/>
    <rect x="42" y="52" width="20" height="4" rx="2" fill="#d2a776"/>
  </g>
  <g transform="translate(192 0)">
    <rect x="14" y="20" width="68" height="52" rx="10" fill="#fff4db" stroke="#bb6c28" stroke-width="3"/>
    <circle cx="28" cy="35" r="4" fill="#f48d34"/>
    <path d="M28 43 A10 10 0 0 1 38 53" stroke="#f48d34" stroke-width="3" fill="none"/>
    <path d="M28 48 A17 17 0 0 1 45 65" stroke="#f48d34" stroke-width="3" fill="none"/>
    <rect x="44" y="31" width="24" height="4" rx="2" fill="#c79462"/>
    <rect x="44" y="42" width="21" height="4" rx="2" fill="#d2a776"/>
    <rect x="44" y="54" width="18" height="4" rx="2" fill="#d2a776"/>
  </g>
  <g transform="translate(288 0)">
    <rect x="14" y="20" width="68" height="52" rx="10" fill="#fff4db" stroke="#bb6c28" stroke-width="3"/>
    <circle cx="28" cy="35" r="4" fill="#f48d34"/>
    <path d="M28 43 A11 11 0 0 1 39 54" stroke="#f48d34" stroke-width="3" fill="none"/>
    <path d="M28 48 A19 19 0 0 1 47 67" stroke="#f48d34" stroke-width="3" fill="none"/>
    <rect x="43" y="30" width="25" height="4" rx="2" fill="#c79462"/>
    <rect x="43" y="41" width="22" height="4" rx="2" fill="#d2a776"/>
    <rect x="43" y="53" width="19" height="4" rx="2" fill="#d2a776"/>
  </g>
</svg>
